<svg xmlns="http://www.w3.org/2000/svg" width="70.412" height="70.412" viewBox="0 0 70.412 70.412">
  <g id="access" transform="translate(-8.362 -9.044)">
    <path id="Path_158" data-name="Path 158" d="M44.8,17.015A28.463,28.463,0,1,0,73.259,45.478,28.5,28.5,0,0,0,44.8,17.015Zm0,53.875A25.412,25.412,0,1,1,70.207,45.478,25.441,25.441,0,0,1,44.8,70.89Z" transform="translate(-1.229 -1.229)"/>
    <path id="Path_159" data-name="Path 159" d="M56.81,42.059,50.671,48.2V26.362a1.526,1.526,0,0,0-3.051,0V51.881a1.5,1.5,0,0,0,.03.3c.008.043.025.083.037.125a1.394,1.394,0,0,0,.05.16,1.571,1.571,0,0,0,.076.145,1.339,1.339,0,0,0,.064.118,1.543,1.543,0,0,0,.424.424c.031.021.065.035.1.052a1.61,1.61,0,0,0,.165.087c.046.019.094.03.14.044a1.4,1.4,0,0,0,.144.042,1.533,1.533,0,0,0,.3.03,1.47,1.47,0,0,0,.3-.03,1.422,1.422,0,0,0,.145-.043c.047-.014.094-.025.14-.043A1.518,1.518,0,0,0,49.9,53.2c.031-.018.063-.03.094-.051a1.446,1.446,0,0,0,.236-.194l8.742-8.742a1.526,1.526,0,0,0-2.158-2.158Z" transform="translate(-6.051 -2.434)"/>
    <path id="Path_160" data-name="Path 160" d="M43.567,9.044A35.206,35.206,0,1,0,78.774,44.25,35.245,35.245,0,0,0,43.567,9.044Zm0,67.36A32.155,32.155,0,1,1,75.722,44.249,32.191,32.191,0,0,1,43.567,76.4Z"/>
  </g>
</svg>
