<svg xmlns="http://www.w3.org/2000/svg" width="88.845" height="62.189" viewBox="0 0 88.845 62.189">
  <g id="bike_storage" data-name="bike storage" transform="translate(0)">
    <path id="Path_72" data-name="Path 72" d="M191.034,297.932a13.352,13.352,0,1,1,13.353-13.352A13.367,13.367,0,0,1,191.034,297.932Zm0-23.8a10.449,10.449,0,1,0,10.45,10.449A10.462,10.462,0,0,0,191.034,274.13Z" transform="translate(-149.611 -235.793)"/>
    <path id="Path_73" data-name="Path 73" d="M223.017,321.694a5.135,5.135,0,1,1,5.135-5.135A5.14,5.14,0,0,1,223.017,321.694Zm0-7.367a2.232,2.232,0,1,0,2.232,2.233A2.235,2.235,0,0,0,223.017,314.327Z" transform="translate(-181.594 -267.774)"/>
    <path id="Path_74" data-name="Path 74" d="M148.636,251.072a1.451,1.451,0,0,1-.335-2.863,11.6,11.6,0,0,0,5.989-3.294,15.331,15.331,0,0,1,6.7-4.225,1.452,1.452,0,0,1,.881,2.767,12.45,12.45,0,0,0-5.445,3.429,14.437,14.437,0,0,1-7.45,4.147,1.432,1.432,0,0,1-.337.04Z" transform="translate(-125.349 -211.443)"/>
    <path id="Path_75" data-name="Path 75" d="M185.538,221.379a1.452,1.452,0,0,1-1.393-1.045l-6.708-23.041h-3.849a1.452,1.452,0,1,1,0-2.9h4.938a1.453,1.453,0,0,1,1.394,1.045l7.012,24.086a1.451,1.451,0,0,1-1.394,1.857Z" transform="translate(-145.199 -174.663)"/>
    <path id="Path_76" data-name="Path 76" d="M149.933,332.678h-1.295a1.452,1.452,0,0,1,0-2.9h.774l4.562-3.761a1.451,1.451,0,0,1,1.846,2.241l-4.964,4.092A1.449,1.449,0,0,1,149.933,332.678Z" transform="translate(-125.35 -279.118)"/>
    <path id="Path_77" data-name="Path 77" d="M218.1,236.384a1.451,1.451,0,0,1-.448-2.832,12.361,12.361,0,0,0,5.354-3.3,16.754,16.754,0,0,1,7.317-4.615,1.451,1.451,0,1,1,.882,2.765,13.889,13.889,0,0,0-6.068,3.821,15.221,15.221,0,0,1-6.588,4.094A1.454,1.454,0,0,1,218.1,236.384Z" transform="translate(-180.613 -199.463)"/>
    <path id="Path_78" data-name="Path 78" d="M251.754,204.052a1.452,1.452,0,0,1-1.393-1.045L242.935,177.5H238.58a1.452,1.452,0,0,1,0-2.9h5.444a1.452,1.452,0,0,1,1.394,1.046l7.73,26.553a1.451,1.451,0,0,1-1.394,1.857Z" transform="translate(-196.907 -158.915)"/>
    <path id="Path_79" data-name="Path 79" d="M296.127,314.642a5.481,5.481,0,0,1-3.868-1.587,1.453,1.453,0,0,1-.418-1.236,10.068,10.068,0,0,0-.373-4.631,1.449,1.449,0,0,1,.211-1.293,5.507,5.507,0,1,1,4.448,8.747Zm-1.314-3.259a2.586,2.586,0,0,0,1.314.356,2.609,2.609,0,0,0,0-5.219,2.555,2.555,0,0,0-1.661.607,13.364,13.364,0,0,1,.394,3.221C294.86,310.682,294.845,311.021,294.812,311.383Z" transform="translate(-240.084 -261.563)"/>
    <path id="Path_80" data-name="Path 80" d="M273.128,288.444a14.472,14.472,0,0,1-8.344-2.635,1.451,1.451,0,0,1-.036-2.351,10.428,10.428,0,0,0-1.469-17.655,1.452,1.452,0,0,1-.352-2.327,14.569,14.569,0,1,1,10.2,24.968Zm-5.048-4.055a11.668,11.668,0,1,0-1.67-20.054,13.331,13.331,0,0,1,1.67,20.054Z" transform="translate(-217.085 -226.306)"/>
    <path id="Path_81" data-name="Path 81" d="M289.006,223.377a1.452,1.452,0,0,1-.374-2.854,13.938,13.938,0,0,0,6.8-3.9,18.078,18.078,0,0,1,7.9-4.98,1.452,1.452,0,0,1,.881,2.767,15.191,15.191,0,0,0-6.645,4.184,16.805,16.805,0,0,1-8.181,4.733A1.489,1.489,0,0,1,289.006,223.377Z" transform="translate(-237.026 -188.336)"/>
    <path id="Path_82" data-name="Path 82" d="M330.474,187.954a1.452,1.452,0,0,1-1.393-1.045l-8.094-27.8h-4.825a1.452,1.452,0,0,1,0-2.9h5.914a1.452,1.452,0,0,1,1.394,1.046l8.4,28.844a1.452,1.452,0,0,1-1.394,1.858Z" transform="translate(-258.63 -144.285)"/>
    <path id="Path_83" data-name="Path 83" d="M376.151,308.09a5.874,5.874,0,0,1-5.337-3.455,1.451,1.451,0,0,1-.126-.674l.014-.237c.009-.121.017-.241.017-.365a11.589,11.589,0,0,0-.2-2.126,1.46,1.46,0,0,1,.037-.679,5.854,5.854,0,1,1,5.6,7.536Zm-2.541-4.36a2.957,2.957,0,1,0,2.54-4.464,2.923,2.923,0,0,0-2.714,1.828,14.5,14.5,0,0,1,.185,2.264C373.622,303.484,373.617,303.608,373.61,303.73Z" transform="translate(-303.009 -255.792)"/>
    <path id="Path_84" data-name="Path 84" d="M352.982,279.631a15.541,15.541,0,0,1-9.631-3.317,1.451,1.451,0,0,1-.034-2.263,11.653,11.653,0,0,0-1.266-18.88,1.451,1.451,0,0,1-.265-2.247,15.7,15.7,0,1,1,11.195,26.708Zm-6.432-4.646a12.63,12.63,0,0,0,6.432,1.743,12.8,12.8,0,1,0,0-25.6,12.684,12.684,0,0,0-7.847,2.691,14.555,14.555,0,0,1,1.415,21.167Z" transform="translate(-279.841 -217.492)"/>
    <path id="Path_85" data-name="Path 85" d="M112.442,390.571H26.4a1.452,1.452,0,0,1,0-2.9h86.041a1.452,1.452,0,0,1,0,2.9Z" transform="translate(-24.999 -328.433)"/>
    <path id="Path_86" data-name="Path 86" d="M63.646,160.07H41.809a1.451,1.451,0,0,1-1.452-1.452V99.332a1.451,1.451,0,0,1,1.452-1.452H63.646A1.451,1.451,0,0,1,65.1,99.332v59.286A1.451,1.451,0,0,1,63.646,160.07Zm-20.386-2.9H62.194V100.784H43.26Z" transform="translate(-40.357 -97.881)"/>
    <path id="Path_87" data-name="Path 87" d="M77.8,196.831H65.758a1.451,1.451,0,0,1-1.452-1.452V171.516a1.451,1.451,0,0,1,1.452-1.452H77.8a1.451,1.451,0,0,1,1.452,1.452V195.38A1.451,1.451,0,0,1,77.8,196.831Zm-10.6-2.9h9.144V172.967H67.209Z" transform="translate(-59.411 -155.309)"/>
    <path id="Path_88" data-name="Path 88" d="M417.906,159.064a1.451,1.451,0,0,1-1.451-1.452V132.565h-8.49v18.152a1.452,1.452,0,1,1-2.9,0v-19.6a1.451,1.451,0,0,1,1.451-1.452h11.393a1.452,1.452,0,0,1,1.452,1.452v26.5A1.451,1.451,0,0,1,417.906,159.064Z" transform="translate(-330.513 -123.166)"/>
    <path id="Path_89" data-name="Path 89" d="M212.744,107.28H148.639a1.451,1.451,0,0,1-1.452-1.452v-6.5a1.451,1.451,0,0,1,1.452-1.452h64.105a1.451,1.451,0,0,1,1.452,1.452v6.5A1.451,1.451,0,0,1,212.744,107.28Zm-62.654-2.9h61.2v-3.593h-61.2Z" transform="translate(-125.35 -97.881)"/>
    <path id="Path_90" data-name="Path 90" d="M77.8,314.327H65.758a1.452,1.452,0,0,1,0-2.9H77.8a1.452,1.452,0,0,1,0,2.9Z" transform="translate(-59.411 -267.774)"/>
    <path id="Path_91" data-name="Path 91" d="M89.766,246.862a1.451,1.451,0,0,1-1.026-2.478l2.4-2.4a1.451,1.451,0,0,1,2.052,2.052l-2.4,2.4A1.446,1.446,0,0,1,89.766,246.862Z" transform="translate(-78.512 -212.19)"/>
    <path id="Path_92" data-name="Path 92" d="M89.766,203.008a1.452,1.452,0,0,1-1.026-2.478l2.948-2.947a1.451,1.451,0,0,1,2.052,2.052l-2.948,2.947A1.446,1.446,0,0,1,89.766,203.008Z" transform="translate(-78.512 -176.865)"/>
  </g>
</svg>
