<svg id="cafe" xmlns="http://www.w3.org/2000/svg" width="64.514" height="68.188" viewBox="0 0 64.514 68.188">
  <path id="Path_106" data-name="Path 106" d="M4.208,9.735H50.686a2.379,2.379,0,0,1,2.379,2.379v16.6a22.3,22.3,0,0,1-22.3,22.3H24.128a22.3,22.3,0,0,1-22.3-22.3v-16.6A2.377,2.377,0,0,1,4.208,9.735Zm2.379,4.757V28.713A17.541,17.541,0,0,0,24.128,46.255h6.638A17.541,17.541,0,0,0,48.307,28.713V14.492Z" transform="translate(-1.829 17.176)" fill-rule="evenodd"/>
  <path id="Path_107" data-name="Path 107" d="M4.208,26.007a2.379,2.379,0,0,1,0-4.757H50.686a2.379,2.379,0,0,1,0,4.757Z" transform="translate(-1.829 42.18)" fill-rule="evenodd"/>
  <path id="Path_108" data-name="Path 108" d="M18.863,15.539a2.379,2.379,0,1,1,0-4.757H23.02a11.5,11.5,0,0,1,11.5,11.5V22.3a11.5,11.5,0,0,1-11.5,11.5H18.863a2.379,2.379,0,0,1,0-4.757H23.02A6.746,6.746,0,0,0,29.763,22.3v-.016a6.746,6.746,0,0,0-6.743-6.743Z" transform="translate(29.994 19.449)" fill-rule="evenodd"/>
  <path id="Path_109" data-name="Path 109" d="M6.8,5.739A2.378,2.378,0,1,1,11.057,3.61a9.018,9.018,0,0,1-.85,9.445l-.057.076a4.267,4.267,0,0,0-.4,4.462,2.378,2.378,0,0,1-4.253,2.128,9.018,9.018,0,0,1,.85-9.445L6.4,10.2a4.267,4.267,0,0,0,.4-4.462Z" transform="translate(4.061 1.024)" fill-rule="evenodd"/>
  <path id="Path_110" data-name="Path 110" d="M15.177,5.739A2.379,2.379,0,0,1,19.433,3.61a9.011,9.011,0,0,1-.853,9.445l-.054.076a4.26,4.26,0,0,0-.4,4.462,2.379,2.379,0,0,1-4.256,2.128,9.025,9.025,0,0,1,.853-9.445l.054-.076a4.254,4.254,0,0,0,.4-4.462Z" transform="translate(22.247 1.024)" fill-rule="evenodd"/>
  <path id="Path_111" data-name="Path 111" d="M10.991,4.692a2.379,2.379,0,1,1,4.256-2.125,9.02,9.02,0,0,1-.853,9.441l-.054.076a4.254,4.254,0,0,0-.4,4.462,2.379,2.379,0,0,1-4.256,2.128,9.011,9.011,0,0,1,.853-9.445l.054-.076a4.26,4.26,0,0,0,.4-4.462Z" transform="translate(13.153 -1.25)" fill-rule="evenodd"/>
</svg>
