<svg id="dog_friendly" data-name="dog friendly" xmlns="http://www.w3.org/2000/svg" width="84.345" height="65.426" viewBox="0 0 84.345 65.426">
  <ellipse id="Ellipse_29" data-name="Ellipse 29" cx="1.647" cy="1.647" rx="1.647" ry="1.647" transform="translate(40.525 30.661)"/>
  <path id="Path_99" data-name="Path 99" d="M84.224,106.769c-.807-4.559-1.636-9.257-2.466-13.955s-2.5-14.121-2.531-14.2c-.8-4.018-4.175-7.894-8.506-7.894q-.386,0-.771.034a12.176,12.176,0,0,0-8.224-5.668,11.368,11.368,0,0,0-13.1-5.213,9.732,9.732,0,0,0-12.913,0,11.311,11.311,0,0,0-3.255-.475,11.425,11.425,0,0,0-9.843,5.688A12.177,12.177,0,0,0,14.4,70.754q-.385-.034-.771-.034c-4.339,0-7.592,3.759-8.457,7.716C5.148,78.5.122,106.769.122,106.769a7.916,7.916,0,0,0,4.435,8.546c5.95,2.775,18.958,7.444,37.454,7.533h0c18.563,0,31.717-4.707,37.776-7.532A7.918,7.918,0,0,0,84.224,106.769Zm-5.833,5.556a73.859,73.859,0,0,1-15.119,4.984,97.426,97.426,0,0,1-21.509,2.239,98.1,98.1,0,0,1-20.987-2.314,74.152,74.152,0,0,1-14.824-4.91,4.61,4.61,0,0,1-2.58-4.978l4.1-23.1A16.078,16.078,0,0,0,10.627,86.2c5.152,2.511,13.916,4.312,24.045,4.94a1.651,1.651,0,0,0,.2-3.295c-9.571-.593-18.095-2.318-22.8-4.613-2.224-1.083-3.609-2.278-3.809-3.283.262-2.841,2.528-5.928,5.36-5.928a5.416,5.416,0,0,1,1.279.154,1.652,1.652,0,0,0,1.885-.9,8.838,8.838,0,0,1,7.066-5.028,1.651,1.651,0,0,0,1.323-.934,8.1,8.1,0,0,1,7.285-4.61,8.013,8.013,0,0,1,3.055.6,1.651,1.651,0,0,0,1.857-.427,6.434,6.434,0,0,1,9.6,0,1.651,1.651,0,0,0,1.857.427,8.013,8.013,0,0,1,3.055-.6,8.1,8.1,0,0,1,7.285,4.61,1.65,1.65,0,0,0,1.323.934,8.838,8.838,0,0,1,7.066,5.028,1.651,1.651,0,0,0,1.885.9,5.409,5.409,0,0,1,1.279-.154c2.821,0,5.122,3.119,5.364,5.9-.179,1.011-1.563,2.214-3.813,3.31-4.74,2.311-13.264,4.039-22.8,4.623a1.651,1.651,0,1,0,.2,3.3c10.1-.619,18.86-2.423,24.045-4.951a16.051,16.051,0,0,0,3.171-1.972c.535,3.028,1.077,6.094,1.618,9.161.83,4.7,1.659,9.4,2.466,13.956A4.611,4.611,0,0,1,78.391,112.324Z" transform="translate(-0.001 -57.423)"/>
  <path id="Path_100" data-name="Path 100" d="M178.433,290.495a5.726,5.726,0,0,0-5.208,3.418H159.677a5.679,5.679,0,1,0-9.991,5.324,5.679,5.679,0,1,0,9.991,5.324h13.548a5.679,5.679,0,1,0,9.991-5.324,5.679,5.679,0,0,0-4.783-8.741Zm1.544,10a2.378,2.378,0,1,1-3.9,2.171,1.651,1.651,0,0,0-1.632-1.4h-16a1.651,1.651,0,0,0-1.632,1.4,2.379,2.379,0,1,1-3.9-2.171,1.651,1.651,0,0,0,0-2.509,2.378,2.378,0,1,1,3.9-2.171,1.651,1.651,0,0,0,1.632,1.4h16a1.651,1.651,0,0,0,1.632-1.4,2.379,2.379,0,1,1,3.9,2.171,1.651,1.651,0,0,0,0,2.508Z" transform="translate(-124.279 -252.099)"/>
  <path id="Path_101" data-name="Path 101" d="M227.717,113.046a3.634,3.634,0,0,1,4.678,0,1.651,1.651,0,1,0,2.255-2.411,6.926,6.926,0,0,0-9.187,0,1.651,1.651,0,1,0,2.255,2.411Z" transform="translate(-187.883 -100.413)"/>
  <path id="Path_102" data-name="Path 102" d="M331.185,159.031a5.792,5.792,0,0,1,4.408,3.587,1.651,1.651,0,0,0,3.077-1.2,9.109,9.109,0,0,0-6.93-5.645,1.651,1.651,0,1,0-.555,3.254Z" transform="translate(-275.48 -139.555)"/>
  <path id="Path_103" data-name="Path 103" d="M134.774,155.778a9.11,9.11,0,0,0-6.93,5.645,1.651,1.651,0,1,0,3.077,1.2,5.793,5.793,0,0,1,4.408-3.587,1.651,1.651,0,1,0-.555-3.254Z" transform="translate(-106.689 -139.555)"/>
  <path id="Path_104" data-name="Path 104" d="M439.492,267.021a1.651,1.651,0,1,0-3.251.575l1.842,10.413a1.651,1.651,0,0,0,3.251-.575Z" transform="translate(-364.355 -231.354)"/>
  <path id="Path_105" data-name="Path 105" d="M48.342,265.684a1.652,1.652,0,0,0-1.913,1.338l-1.842,10.413a1.651,1.651,0,0,0,3.251.575L49.68,267.6A1.651,1.651,0,0,0,48.342,265.684Z" transform="translate(-37.221 -231.354)"/>
</svg>
