<svg xmlns="http://www.w3.org/2000/svg" width="75.668" height="71.65" viewBox="0 0 75.668 71.65">
  <g id="meeting_room" data-name="meeting room" transform="translate(0 -13.595)">
    <path id="Path_148" data-name="Path 148" d="M135.908,255.335a2.6,2.6,0,0,0,2.6-2.6v-3.853a2.6,2.6,0,0,0-2.6-2.6h-9.236a1.108,1.108,0,0,0,0,2.217h9.236a.385.385,0,0,1,.384.384v3.853a.385.385,0,0,1-.384.384H122.587v-8.693a6.3,6.3,0,0,0-6.289-6.289h-4.876a6.3,6.3,0,0,0-6.289,6.289v1.855H91.811a2.6,2.6,0,0,0-2.6,2.6v3.853a2.6,2.6,0,0,0,2.6,2.6H93.58v20.158a1.108,1.108,0,1,0,2.217,0V255.335h9.336v.991a3.261,3.261,0,0,0,.311,1.392,3.283,3.283,0,0,0,1.424,6.242h5.884v7.772H108.5a2.3,2.3,0,0,0-2.294,2.294v1.467a1.108,1.108,0,0,0,2.217,0v-1.467a.078.078,0,0,1,.078-.078h10.715a.078.078,0,0,1,.078.078v1.467a1.108,1.108,0,0,0,2.217,0v-1.467a2.3,2.3,0,0,0-2.294-2.294h-4.249V263.96h5.884a3.283,3.283,0,0,0,1.424-6.242,3.264,3.264,0,0,0,.311-1.392v-.991h9.336v20.158a1.108,1.108,0,1,0,2.217,0V255.335Zm-24.487-14.982H116.3a4.077,4.077,0,0,1,4.072,4.072v11.9a1.068,1.068,0,0,1-1.067,1.067H108.416a1.068,1.068,0,0,1-1.067-1.067v-11.9A4.077,4.077,0,0,1,111.422,240.353ZM91.811,253.118a.385.385,0,0,1-.384-.384v-3.853a.385.385,0,0,1,.384-.384h13.322v4.621Zm29.041,8.625H106.867a1.067,1.067,0,1,1,0-2.133h13.985a1.067,1.067,0,1,1,0,2.133Z" transform="translate(-76.026 -191.356)"/>
    <path id="Path_149" data-name="Path 149" d="M13.708,271.732H9.459v-7.772h3.255a3.284,3.284,0,1,0,0-6.567h-5.9a3.515,3.515,0,0,0,.256-1.318v-14.4a3.535,3.535,0,0,0-7.069,0v19.006a3.287,3.287,0,0,0,3.284,3.284H7.242v7.772H2.993A2.3,2.3,0,0,0,.7,274.027v1.467a1.108,1.108,0,0,0,2.217,0v-1.467a.078.078,0,0,1,.078-.078H13.708a.078.078,0,0,1,.078.078v1.467a1.108,1.108,0,0,0,2.217,0v-1.467A2.3,2.3,0,0,0,13.708,271.732ZM2.217,241.671a1.318,1.318,0,0,1,2.636,0v14.4a1.319,1.319,0,0,1-1.318,1.318H2.217Zm0,19.006V259.61h10.5a1.067,1.067,0,1,1,0,2.133H3.284a1.068,1.068,0,0,1-1.067-1.067Z" transform="translate(0 -191.357)"/>
    <path id="Path_150" data-name="Path 150" d="M416.189,238.136a3.539,3.539,0,0,0-3.535,3.535v14.4a3.512,3.512,0,0,0,.256,1.318h-5.9a3.284,3.284,0,0,0,0,6.567h3.255v7.772h-4.249a2.3,2.3,0,0,0-2.294,2.294v1.466a1.108,1.108,0,1,0,2.217,0v-1.466a.078.078,0,0,1,.078-.078h10.715a.078.078,0,0,1,.078.078v1.466a1.108,1.108,0,1,0,2.217,0v-1.466a2.3,2.3,0,0,0-2.294-2.294h-4.249V263.96h3.958a3.287,3.287,0,0,0,3.284-3.284V241.671A3.539,3.539,0,0,0,416.189,238.136Zm-1.318,17.939v-14.4a1.318,1.318,0,0,1,2.636,0v15.722h-1.318A1.319,1.319,0,0,1,414.871,256.075Zm2.636,4.6a1.068,1.068,0,0,1-1.067,1.067h-9.431a1.067,1.067,0,1,1,0-2.133h10.5Z" transform="translate(-344.055 -191.356)"/>
    <path id="Path_151" data-name="Path 151" d="M118.361,20.887h33.361V33.952a.479.479,0,0,1-.478.478h-31.3a.479.479,0,0,1-.478-.478V24.983a1.108,1.108,0,0,0-2.217,0v8.969a2.7,2.7,0,0,0,2.695,2.695h14.54v1.912a1.108,1.108,0,0,0,2.217,0V36.647h14.54a2.7,2.7,0,0,0,2.695-2.695V20.714a3.646,3.646,0,0,0-1.108-7.119H118.361a3.646,3.646,0,0,0,0,7.292Zm0-5.075H152.83a1.429,1.429,0,0,1,0,2.858H118.361a1.429,1.429,0,1,1,0-2.858Z" transform="translate(-97.761)"/>
  </g>
</svg>
