<svg xmlns="http://www.w3.org/2000/svg" width="64.538" height="69.112" viewBox="0 0 64.538 69.112">
  <g id="member_lockers" data-name="member lockers" transform="translate(0.25 0.25)">
    <g id="Group_208" data-name="Group 208" transform="translate(0)">
      <g id="Group_207" data-name="Group 207">
        <path id="Path_94" data-name="Path 94" d="M78.894,0H17.144A1.144,1.144,0,0,0,16,1.144V65.181a1.144,1.144,0,0,0,1.144,1.144h2.287v2.287h2.287V66.325H33.153v2.287H35.44V66.325h4.574v2.287H42.3V66.325H53.737v2.287h2.287V66.325H60.6v2.287h2.287V66.325H74.32v2.287h2.287V66.325h2.287a1.144,1.144,0,0,0,1.144-1.144V1.144A1.144,1.144,0,0,0,78.894,0ZM36.584,64.038h-18.3V2.287h18.3Zm20.584,0h-18.3V2.287h18.3Zm20.584,0h-18.3V2.287h18.3Z" transform="translate(-16)" stroke="#000" stroke-width="0.5"/>
      </g>
    </g>
    <g id="Group_210" data-name="Group 210" transform="translate(6.577 5.685)">
      <g id="Group_209" data-name="Group 209" transform="translate(0 0)">
        <rect id="Rectangle_151" data-name="Rectangle 151" width="10.601" height="2.12" stroke="#000" stroke-width="0.5"/>
      </g>
    </g>
    <g id="Group_212" data-name="Group 212" transform="translate(6.577 10.985)">
      <g id="Group_211" data-name="Group 211" transform="translate(0 0)">
        <rect id="Rectangle_152" data-name="Rectangle 152" width="10.601" height="2.12" transform="translate(0 0)" stroke="#000" stroke-width="0.5"/>
      </g>
    </g>
    <g id="Group_214" data-name="Group 214" transform="translate(6.577 14.165)">
      <g id="Group_213" data-name="Group 213" transform="translate(0 0)">
        <rect id="Rectangle_153" data-name="Rectangle 153" width="10.601" height="2.12" stroke="#000" stroke-width="0.5"/>
      </g>
    </g>
    <g id="Group_216" data-name="Group 216" transform="translate(6.577 49.147)">
      <g id="Group_215" data-name="Group 215" transform="translate(0 0)">
        <rect id="Rectangle_154" data-name="Rectangle 154" width="10.601" height="3.18" stroke="#000" stroke-width="0.5"/>
      </g>
    </g>
    <g id="Group_218" data-name="Group 218" transform="translate(6.577 53.387)">
      <g id="Group_217" data-name="Group 217" transform="translate(0 0)">
        <rect id="Rectangle_155" data-name="Rectangle 155" width="10.601" height="2.12" transform="translate(0 0)" stroke="#000" stroke-width="0.5"/>
      </g>
    </g>
    <g id="Group_220" data-name="Group 220" transform="translate(6.577 58.687)">
      <g id="Group_219" data-name="Group 219" transform="translate(0 0)">
        <rect id="Rectangle_156" data-name="Rectangle 156" width="10.601" height="2.12" stroke="#000" stroke-width="0.5"/>
      </g>
    </g>
    <g id="Group_222" data-name="Group 222" transform="translate(6.577 27.946)">
      <g id="Group_221" data-name="Group 221" transform="translate(0 0)">
        <rect id="Rectangle_157" data-name="Rectangle 157" width="2.12" height="2.12" stroke="#000" stroke-width="0.5"/>
      </g>
    </g>
    <g id="Group_224" data-name="Group 224" transform="translate(6.577 32.186)">
      <g id="Group_223" data-name="Group 223" transform="translate(0 0)">
        <rect id="Rectangle_158" data-name="Rectangle 158" width="2.12" height="7.42" stroke="#000" stroke-width="0.5"/>
      </g>
    </g>
    <g id="Group_226" data-name="Group 226" transform="translate(26.718 5.685)">
      <g id="Group_225" data-name="Group 225" transform="translate(0 0)">
        <rect id="Rectangle_159" data-name="Rectangle 159" width="11.661" height="2.12" stroke="#000" stroke-width="0.5"/>
      </g>
    </g>
    <g id="Group_228" data-name="Group 228" transform="translate(26.718 10.985)">
      <g id="Group_227" data-name="Group 227" transform="translate(0 0)">
        <rect id="Rectangle_160" data-name="Rectangle 160" width="11.661" height="2.12" transform="translate(0 0)" stroke="#000" stroke-width="0.5"/>
      </g>
    </g>
    <g id="Group_230" data-name="Group 230" transform="translate(26.718 14.165)">
      <g id="Group_229" data-name="Group 229" transform="translate(0 0)">
        <rect id="Rectangle_161" data-name="Rectangle 161" width="11.661" height="2.12" stroke="#000" stroke-width="0.5"/>
      </g>
    </g>
    <g id="Group_232" data-name="Group 232" transform="translate(26.718 49.147)">
      <g id="Group_231" data-name="Group 231" transform="translate(0 0)">
        <rect id="Rectangle_162" data-name="Rectangle 162" width="11.661" height="3.18" stroke="#000" stroke-width="0.5"/>
      </g>
    </g>
    <g id="Group_234" data-name="Group 234" transform="translate(26.718 53.387)">
      <g id="Group_233" data-name="Group 233" transform="translate(0 0)">
        <rect id="Rectangle_163" data-name="Rectangle 163" width="11.661" height="2.12" transform="translate(0 0)" stroke="#000" stroke-width="0.5"/>
      </g>
    </g>
    <g id="Group_236" data-name="Group 236" transform="translate(26.718 58.687)">
      <g id="Group_235" data-name="Group 235" transform="translate(0 0)">
        <rect id="Rectangle_164" data-name="Rectangle 164" width="11.661" height="2.12" stroke="#000" stroke-width="0.5"/>
      </g>
    </g>
    <g id="Group_238" data-name="Group 238" transform="translate(26.718 27.946)">
      <g id="Group_237" data-name="Group 237" transform="translate(0 0)">
        <rect id="Rectangle_165" data-name="Rectangle 165" width="2.12" height="2.12" stroke="#000" stroke-width="0.5"/>
      </g>
    </g>
    <g id="Group_240" data-name="Group 240" transform="translate(26.718 32.186)">
      <g id="Group_239" data-name="Group 239" transform="translate(0 0)">
        <rect id="Rectangle_166" data-name="Rectangle 166" width="2.12" height="7.42" stroke="#000" stroke-width="0.5"/>
      </g>
    </g>
    <g id="Group_242" data-name="Group 242" transform="translate(46.86 5.685)">
      <g id="Group_241" data-name="Group 241" transform="translate(0 0)">
        <rect id="Rectangle_167" data-name="Rectangle 167" width="11.661" height="2.12" transform="translate(0)" stroke="#000" stroke-width="0.5"/>
      </g>
    </g>
    <g id="Group_244" data-name="Group 244" transform="translate(46.86 10.985)">
      <g id="Group_243" data-name="Group 243" transform="translate(0 0)">
        <rect id="Rectangle_168" data-name="Rectangle 168" width="11.661" height="2.12" transform="translate(0 0)" stroke="#000" stroke-width="0.5"/>
      </g>
    </g>
    <g id="Group_246" data-name="Group 246" transform="translate(46.86 14.165)">
      <g id="Group_245" data-name="Group 245" transform="translate(0 0)">
        <rect id="Rectangle_169" data-name="Rectangle 169" width="11.661" height="2.12" transform="translate(0)" stroke="#000" stroke-width="0.5"/>
      </g>
    </g>
    <g id="Group_248" data-name="Group 248" transform="translate(46.86 49.147)">
      <g id="Group_247" data-name="Group 247" transform="translate(0 0)">
        <rect id="Rectangle_170" data-name="Rectangle 170" width="11.661" height="3.18" transform="translate(0)" stroke="#000" stroke-width="0.5"/>
      </g>
    </g>
    <g id="Group_250" data-name="Group 250" transform="translate(46.86 53.387)">
      <g id="Group_249" data-name="Group 249" transform="translate(0 0)">
        <rect id="Rectangle_171" data-name="Rectangle 171" width="11.661" height="2.12" transform="translate(0 0)" stroke="#000" stroke-width="0.5"/>
      </g>
    </g>
    <g id="Group_252" data-name="Group 252" transform="translate(46.86 58.687)">
      <g id="Group_251" data-name="Group 251" transform="translate(0 0)">
        <rect id="Rectangle_172" data-name="Rectangle 172" width="11.661" height="2.12" transform="translate(0)" stroke="#000" stroke-width="0.5"/>
      </g>
    </g>
    <g id="Group_254" data-name="Group 254" transform="translate(46.86 27.946)">
      <g id="Group_253" data-name="Group 253" transform="translate(0 0)">
        <rect id="Rectangle_173" data-name="Rectangle 173" width="3.18" height="2.12" transform="translate(0)" stroke="#000" stroke-width="0.5"/>
      </g>
    </g>
    <g id="Group_256" data-name="Group 256" transform="translate(46.86 32.186)">
      <g id="Group_255" data-name="Group 255" transform="translate(0 0)">
        <rect id="Rectangle_174" data-name="Rectangle 174" width="3.18" height="7.42" transform="translate(0)" stroke="#000" stroke-width="0.5"/>
      </g>
    </g>
  </g>
</svg>
