<svg id="natural_daylight" data-name="natural daylight" xmlns="http://www.w3.org/2000/svg" width="82.606" height="82.606" viewBox="0 0 82.606 82.606">
  <path id="Path_130" data-name="Path 130" d="M265.87,134.479a1.424,1.424,0,1,0,2.319-1.652,20.307,20.307,0,0,0-10.146-7.465,1.424,1.424,0,0,0-.888,2.7A17.445,17.445,0,0,1,265.87,134.479Zm0,0" transform="translate(-210.602 -102.999)"/>
  <path id="Path_132" data-name="Path 132" d="M160.365,298.167a17.045,17.045,0,0,1-13.019-5.979,1.425,1.425,0,1,0-2.168,1.85,19.888,19.888,0,0,0,15.187,6.976,1.424,1.424,0,1,0,0-2.847Zm0,0" transform="translate(-119.062 -239.781)"/>
  <path id="Path_141" data-name="Path 141" d="M225.521,26.063a1.424,1.424,0,0,0,1.424-1.424V17.521a1.424,1.424,0,1,0-2.847,0v7.118A1.424,1.424,0,0,0,225.521,26.063Zm0,0" transform="translate(-184.219 -13.233)"/>
  <path id="Path_135" data-name="Path 135" d="M123.869,52.3a1.424,1.424,0,1,0,2.466-1.424l-3.559-6.164a1.424,1.424,0,0,0-2.466,1.424Zm0,0" transform="translate(-98.747 -36.177)"/>
  <path id="Path_136" data-name="Path 136" d="M44.152,120.81a1.424,1.424,0,0,0,.521,1.945l6.164,3.559a1.424,1.424,0,1,0,1.424-2.466L46.1,120.289A1.423,1.423,0,0,0,44.152,120.81Zm0,0" transform="translate(-36.138 -98.726)"/>
  <path id="Path_137" data-name="Path 137" d="M50.8,308.267l-6.164,3.559a1.424,1.424,0,1,0,1.424,2.466l6.164-3.559a1.424,1.424,0,1,0-1.424-2.466Zm0,0" transform="translate(-36.103 -253.249)"/>
  <path id="Path_138" data-name="Path 138" d="M125.77,369.778a1.423,1.423,0,0,0-1.944.522l-3.559,6.164a1.424,1.424,0,1,0,2.466,1.424l3.559-6.164a1.424,1.424,0,0,0-.521-1.946Zm0,0" transform="translate(-98.705 -303.818)"/>
  <path id="Path_133" data-name="Path 133" d="M225.521,392.1a1.424,1.424,0,0,0-1.424,1.424v7.118a1.424,1.424,0,0,0,2.847,0v-7.118A1.424,1.424,0,0,0,225.521,392.1Zm0,0" transform="translate(-184.219 -322.322)"/>
  <path id="Path_131" data-name="Path 131" d="M310.733,370.267a1.424,1.424,0,1,0-2.466,1.424l3.559,6.164a1.424,1.424,0,0,0,2.466-1.424Zm0,0" transform="translate(-253.249 -303.785)"/>
  <path id="Path_129" data-name="Path 129" d="M378.376,313.77a1.424,1.424,0,0,0-.521-1.944l-6.164-3.559a1.424,1.424,0,1,0-1.424,2.466l6.164,3.559A1.424,1.424,0,0,0,378.376,313.77Zm0,0" transform="translate(-303.785 -253.249)"/>
  <path id="Path_134" data-name="Path 134" d="M371.025,126.525a1.42,1.42,0,0,0,.712-.19l6.164-3.559a1.424,1.424,0,0,0-1.424-2.466l-6.164,3.559a1.423,1.423,0,0,0,.712,2.656Zm0,0" transform="translate(-303.83 -98.747)"/>
  <path id="Path_139" data-name="Path 139" d="M308.806,52.822a1.424,1.424,0,0,0,1.945-.523l3.559-6.164a1.424,1.424,0,0,0-2.466-1.424l-3.559,6.164a1.424,1.424,0,0,0,.521,1.946Zm0,0" transform="translate(-253.269 -36.177)"/>
  <path id="Path_127" data-name="Path 127" d="M77.781,108.313A8.069,8.069,0,0,0,65.2,104.019,25.474,25.474,0,0,0,41.479,88.1a25.767,25.767,0,0,0-23.285,14.936A7.156,7.156,0,0,0,8.523,106.6a7.837,7.837,0,1,0-.485,15.66h9.286a25.617,25.617,0,0,0,48.342-.1H75.674a7.09,7.09,0,0,0,2.107-13.852ZM3.041,114.42a5,5,0,0,1,5-4.983,5.575,5.575,0,0,1,1.156.125,1.423,1.423,0,0,0,1.679-1.058,4.369,4.369,0,0,1,7.08-2.295,4.1,4.1,0,0,1,1.121,1.462,1.424,1.424,0,0,0,1.8.733,5.946,5.946,0,0,1,2.086-.391,5.7,5.7,0,0,1,0,11.4H8.038A5,5,0,0,1,3.041,114.42ZM41.479,136.5a22.669,22.669,0,0,1-21.135-14.236h2.614a8.549,8.549,0,1,0-1.923-16.877,6.612,6.612,0,0,0-.5-.632,22.789,22.789,0,0,1,42.108.521h-.039a6.7,6.7,0,0,0-1.076.158c-.068.015-.132.041-.2.058a6.521,6.521,0,0,0-.872.284c-.065.027-.127.058-.19.088a6.827,6.827,0,0,0-.806.428c-.06.037-.116.076-.174.115a6.952,6.952,0,0,0-.712.546c-.058.051-.115.1-.172.154a6.953,6.953,0,0,0-.591.632c-.057.069-.115.133-.17.2a6.893,6.893,0,0,0-.467.712c-.045.079-.1.151-.142.231a6.6,6.6,0,0,0-.443,1.015,6.172,6.172,0,0,0,1.039,12.257h5.028A22.656,22.656,0,0,1,41.479,136.5Zm34.2-17.183H57.622a3.326,3.326,0,1,1,.1-6.648,1.423,1.423,0,0,0,1.408-1.214,3.745,3.745,0,0,1,.205-.767c.019-.05.044-.1.065-.143a3.851,3.851,0,0,1,.3-.583c.018-.03.041-.06.061-.09a4.156,4.156,0,0,1,.466-.569l.013-.013a3.957,3.957,0,0,1,2.861-1.157,3.822,3.822,0,0,1,.938.132,1.491,1.491,0,0,0,1.6-.639,1.38,1.38,0,0,0,.158-.191,5.127,5.127,0,0,1,4.227-2.164,5.246,5.246,0,0,1,5.154,4.428,1.425,1.425,0,0,0,1.178,1.191,4.244,4.244,0,0,1-.681,8.432Zm0,0" transform="translate(-0.176 -72.419)"/>
  <path id="Path_142" data-name="Path 142" d="M417.523,8.559a1.424,1.424,0,0,0,1.007-.417l5.695-5.695A1.424,1.424,0,1,0,422.211.434l-5.695,5.695a1.423,1.423,0,0,0,1.007,2.43Zm0,0" transform="translate(-342.054 0)"/>
  <path id="Path_143" data-name="Path 143" d="M6.29,8.3A1.424,1.424,0,0,0,8.3,6.29L2.609.6A1.424,1.424,0,0,0,.6,2.609Zm0,0" transform="translate(-0.161 -0.161)"/>
  <path id="Path_128" data-name="Path 128" d="M418.609,416.6a1.424,1.424,0,0,0-2.013,2.013l5.695,5.694a1.424,1.424,0,0,0,2.013-2.013Zm0,0" transform="translate(-342.131 -342.132)"/>
  <path id="Path_140" data-name="Path 140" d="M6.129,416.6.434,422.29A1.424,1.424,0,1,0,2.447,424.3l5.695-5.694A1.424,1.424,0,0,0,6.129,416.6Zm0,0" transform="translate(0 -342.132)"/>
</svg>
