<svg xmlns="http://www.w3.org/2000/svg" width="73.614" height="73.614" viewBox="0 0 73.614 73.614">
  <g id="phone_booths" data-name="phone booths" transform="translate(0.5 0.5)">
    <g id="Group_258" data-name="Group 258" transform="translate(52.987 5.983)">
      <path id="Path_95" data-name="Path 95" d="M373.25,42.147h2.129v2.129H373.25Z" transform="translate(-373.25 -42.147)" stroke="#000" stroke-width="1"/>
      <path id="Path_96" data-name="Path 96" d="M403.25,42.147h2.129v2.129H403.25Z" transform="translate(-398.991 -42.147)" stroke="#000" stroke-width="1"/>
    </g>
    <g id="Group_259" data-name="Group 259">
      <path id="Path_97" data-name="Path 97" d="M72.614,35.242V5.324A5.33,5.33,0,0,0,67.29,0H5.324A5.33,5.33,0,0,0,0,5.324V35.242H2.129V5.324A3.2,3.2,0,0,1,5.324,2.129H20.456V9.7h-2.48v3.129a8.521,8.521,0,0,0-4.96,7.731V21.62H30.025V20.555a8.521,8.521,0,0,0-4.96-7.731V9.7h-2.48V2.129H38.791V37.814H22.541V44.2H38.791V70.484H32.327L27.3,57.872h3.465v-3.9a5.33,5.33,0,0,0-5.324-5.324H14.081a5.33,5.33,0,0,0-5.324,5.324v3.9H13L7.969,70.484H5.324A3.2,3.2,0,0,1,2.129,67.29V37.372H0V67.29a5.33,5.33,0,0,0,5.324,5.324H67.29a5.33,5.33,0,0,0,5.324-5.324V37.372H70.484V67.29a3.2,3.2,0,0,1-3.194,3.194H40.921V2.129H67.29a3.2,3.2,0,0,1,3.194,3.194V35.242ZM22.936,11.825v2.469a6.53,6.53,0,0,1,4.87,5.2H15.236a6.532,6.532,0,0,1,4.87-5.2V11.825ZM10.887,55.743V53.968a3.2,3.2,0,0,1,3.194-3.194H25.438a3.2,3.2,0,0,1,3.194,3.194v1.775Zm16.132,7.182H13.276l2.015-5.052H25ZM10.262,70.484l2.165-5.43H27.869l2.165,5.43ZM38.791,42.073H24.67V39.943H38.791Z" stroke="#000" stroke-width="1"/>
      <path id="Path_98" data-name="Path 98" d="M342.7,99.643h1.169a3.908,3.908,0,0,0,3.9-3.9V87.221a3.908,3.908,0,0,0-3.9-3.9c-14.778-.729-15.461,11.817-15.261,24.488.014,12.185-.058,24.372,14.092,24.489h1.169a3.909,3.909,0,0,0,3.9-3.9v-8.518a3.909,3.909,0,0,0-3.9-3.9c-4.042.084-5.844-.4-6.054-2.26a78.4,78.4,0,0,1,0-11.805C338.011,100.9,338.26,99.643,342.7,99.643Zm.1-14.2h1.065a1.776,1.776,0,0,1,1.774,1.775v8.518a1.776,1.776,0,0,1-1.774,1.775H342.8Zm0,32.651h1.065a1.776,1.776,0,0,1,1.774,1.775v8.518a1.776,1.776,0,0,1-1.774,1.775H342.8Zm-7.078-3.974c.467,2.346,1.943,3.536,4.948,3.872v12.068c-10.668-1.153-9.708-12.311-9.937-22.259.232-9.953-.734-21.1,9.938-22.259V97.615c-3,.336-4.481,1.526-4.948,3.872A75.56,75.56,0,0,0,335.722,114.124Z" transform="translate(-281.933 -71.463)" stroke="#000" stroke-width="1"/>
    </g>
  </g>
</svg>
