<svg id="printing" xmlns="http://www.w3.org/2000/svg" width="65.944" height="69.729" viewBox="0 0 65.944 69.729">
  <g id="_002---Scan-In-Artwork" data-name="002---Scan-In-Artwork" transform="translate(0 0)">
    <path id="Shape" d="M4.649,69.729h52.3a4.649,4.649,0,0,0,4.649-4.649V60.432H63.62a2.324,2.324,0,0,0,2.265-2.847L62.934,44.8A2.313,2.313,0,0,0,60.67,43H56.045l-5.891-8.251L61.478,10.959a.04.04,0,0,1,.009-.03.322.322,0,0,0,.022-.065,1.181,1.181,0,0,0,.072-.356c0-.017.009-.031.009-.049V4.649A4.649,4.649,0,0,0,56.942,0H4.649A4.649,4.649,0,0,0,0,4.649v5.811c0,.017.009.031.009.049a1.181,1.181,0,0,0,.072.356c.008.022.013.044.022.065s0,.021.009.03L11.44,34.748.216,50.46a1.162,1.162,0,0,0-.088.169c-.013.027-.03.051-.042.08a1.151,1.151,0,0,0-.079.4A.249.249,0,0,0,0,51.135V65.081A4.649,4.649,0,0,0,4.649,69.729ZM59.27,65.081A2.324,2.324,0,0,1,56.946,67.4H4.649a2.324,2.324,0,0,1-2.324-2.324V52.3H45.4l.948,6.159a2.313,2.313,0,0,0,2.3,1.976h.93a4.521,4.521,0,0,1-3.089,1.162,1.162,1.162,0,0,0,0,2.324c1.778,0,4.953-.765,5.663-3.486h4.4a4.521,4.521,0,0,1-3.092,1.162,1.162,1.162,0,0,0,0,2.324c1.778,0,4.953-.765,5.663-3.486h.148Zm-14.9-19.757H12.451l3.324-4.649H45.819L47.481,43h-.8a2.3,2.3,0,0,0-2.314,2.324ZM63.623,58.108H48.645L46.679,45.324H60.664ZM2.324,4.649A2.324,2.324,0,0,1,4.649,2.324h52.3A2.324,2.324,0,0,1,59.27,4.649V9.3H2.324Zm56.267,6.973L48.077,33.7H13.517L3,11.622ZM13.383,36.027h34.83L53.191,43H50.338l-2.629-3.677a2.324,2.324,0,0,0-1.89-.972H15.775a2.324,2.324,0,0,0-1.891.973L9.9,44.891a1.743,1.743,0,0,0,1.418,2.758H44.685l.358,2.324H3.42Z" transform="translate(0 0)"/>
    <path id="Shape-2" data-name="Shape" d="M44.162,43.324h3.486a1.162,1.162,0,0,0,0-2.324H44.162a1.162,1.162,0,0,0,0,2.324Z" transform="translate(6.973 6.648)"/>
    <path id="Shape-3" data-name="Shape" d="M44,46.162a1.162,1.162,0,0,0,1.162,1.162h6.973a1.162,1.162,0,0,0,0-2.324H45.162A1.162,1.162,0,0,0,44,46.162Z" transform="translate(7.135 7.297)"/>
    <path id="Shape-4" data-name="Shape" d="M8.486,48a3.486,3.486,0,1,0,3.486,3.486A3.486,3.486,0,0,0,8.486,48Zm0,4.649a1.162,1.162,0,1,1,1.162-1.162A1.162,1.162,0,0,1,8.486,52.649Z" transform="translate(0.811 7.783)"/>
    <path id="Shape-5" data-name="Shape" d="M17.486,48a3.486,3.486,0,1,0,3.486,3.486A3.486,3.486,0,0,0,17.486,48Zm0,4.649a1.162,1.162,0,1,1,1.162-1.162A1.162,1.162,0,0,1,17.486,52.649Z" transform="translate(2.27 7.783)"/>
    <path id="Shape-6" data-name="Shape" d="M7.486,4H5.162a1.162,1.162,0,1,0,0,2.324H7.486A1.162,1.162,0,1,0,7.486,4Z" transform="translate(0.649 0.649)"/>
    <path id="Shape-7" data-name="Shape" d="M21.622,4H11.162a1.162,1.162,0,1,0,0,2.324H21.622a1.162,1.162,0,0,0,0-2.324Z" transform="translate(1.622 0.649)"/>
    <circle id="Oval" cx="1" cy="1" r="1" transform="translate(27 60.729)"/>
    <ellipse id="Oval-2" data-name="Oval" cx="1.5" cy="1" rx="1.5" ry="1" transform="translate(30 60.729)"/>
    <circle id="Oval-3" data-name="Oval" cx="1" cy="1" r="1" transform="translate(34 60.729)"/>
  </g>
</svg>
