<svg id="wifi" xmlns="http://www.w3.org/2000/svg" width="69.407" height="61.138" viewBox="0 0 69.407 61.138">
  <path id="Path_66" data-name="Path 66" d="M129.616,113.843a20,20,0,0,1,28.264,0,2.033,2.033,0,1,0,2.876-2.875,24.067,24.067,0,0,0-34.017,0,2.033,2.033,0,1,0,2.877,2.875Z" transform="translate(-109.044 -93.974)"/>
  <path id="Path_67" data-name="Path 67" d="M211.614,226.55a2.033,2.033,0,1,0,2.876,2.876,3.871,3.871,0,0,1,5.254,0,2.033,2.033,0,0,0,2.876-2.876,7.933,7.933,0,0,0-11.005,0Z" transform="translate(-182.413 -198.056)"/>
  <path id="Path_68" data-name="Path 68" d="M191.689,171.461a2.033,2.033,0,0,0,0-2.876,15.93,15.93,0,0,0-22.511,0,2.033,2.033,0,0,0,2.876,2.875,11.863,11.863,0,0,1,16.759,0A2.033,2.033,0,0,0,191.689,171.461Z" transform="translate(-145.73 -145.841)"/>
  <path id="Path_69" data-name="Path 69" d="M67.373,67.239H57.865L69.3,33.183a2.033,2.033,0,1,0-3.855-1.295l-11.87,35.35H15.832L3.961,31.888A2.033,2.033,0,1,0,.106,33.183L11.542,67.239H2.034A2.033,2.033,0,0,0,0,69.272v8.134a10.184,10.184,0,0,0,8.134,9.962v2.238a2.033,2.033,0,1,0,4.067,0V87.573H57.206v2.033a2.033,2.033,0,1,0,4.067,0V87.368a10.184,10.184,0,0,0,8.134-9.962V69.272a2.033,2.033,0,0,0-2.033-2.033ZM65.34,77.406a6.107,6.107,0,0,1-6.1,6.1H32.67v-6.1a2.033,2.033,0,1,0-4.067,0v6.1H24.536v-6.1a2.033,2.033,0,1,0-4.067,0v6.1H16.4v-6.1a2.033,2.033,0,1,0-4.067,0v6.1H10.167a6.107,6.107,0,0,1-6.1-6.1v-6.1H65.34Z" transform="translate(0 -30.502)"/>
  <ellipse id="Ellipse_28" data-name="Ellipse 28" cx="1.925" cy="1.925" rx="1.925" ry="1.925" transform="translate(57.974 44.379)"/>
</svg>
